<mxfile host="app.diagrams.net" agent="Mozilla/5.0 (X11; Linux x86_64; rv:143.0) Gecko/20100101 Firefox/143.0" version="28.2.5">
  <diagram name="Page-1" id="S97H3dH8lDNiiOa8RQUa">
    <mxGraphModel dx="453" dy="255" grid="1" gridSize="10" guides="1" tooltips="1" connect="1" arrows="1" fold="1" page="1" pageScale="1" pageWidth="827" pageHeight="1169" math="1" shadow="0">
      <root>
        <mxCell id="0" />
        <mxCell id="1" parent="0" />
        <mxCell id="s-gAyY3BLTUoH7W5xHSd-2" value="$$10\ k\Omega$$" style="text;html=1;align=center;verticalAlign=middle;whiteSpace=wrap;rounded=0;" parent="1" vertex="1">
          <mxGeometry x="180" y="87.5" width="60" height="20" as="geometry" />
        </mxCell>
        <mxCell id="tF1DNe6oD6CyZ-WPLli9-10" value="" style="edgeStyle=orthogonalEdgeStyle;shape=connector;rounded=0;orthogonalLoop=1;jettySize=auto;html=1;strokeColor=default;align=center;verticalAlign=middle;fontFamily=Helvetica;fontSize=11;fontColor=default;labelBackgroundColor=default;endArrow=none;endFill=0;" edge="1" parent="1" source="tF1DNe6oD6CyZ-WPLli9-16" target="s-gAyY3BLTUoH7W5xHSd-8">
          <mxGeometry relative="1" as="geometry" />
        </mxCell>
        <mxCell id="tF1DNe6oD6CyZ-WPLli9-12" value="" style="edgeStyle=orthogonalEdgeStyle;shape=connector;rounded=0;orthogonalLoop=1;jettySize=auto;html=1;strokeColor=default;align=center;verticalAlign=middle;fontFamily=Helvetica;fontSize=11;fontColor=default;labelBackgroundColor=default;endArrow=none;endFill=0;" edge="1" parent="1" source="tF1DNe6oD6CyZ-WPLli9-13" target="s-gAyY3BLTUoH7W5xHSd-9">
          <mxGeometry relative="1" as="geometry" />
        </mxCell>
        <mxCell id="s-gAyY3BLTUoH7W5xHSd-1" value="R&lt;sub&gt;1&lt;/sub&gt;" style="pointerEvents=1;verticalLabelPosition=top;shadow=0;dashed=0;align=center;html=1;verticalAlign=bottom;shape=mxgraph.electrical.resistors.resistor_2;labelPosition=center;" parent="1" vertex="1">
          <mxGeometry x="160" y="70" width="100" height="20" as="geometry" />
        </mxCell>
        <mxCell id="tF1DNe6oD6CyZ-WPLli9-14" value="" style="edgeStyle=orthogonalEdgeStyle;shape=connector;rounded=0;orthogonalLoop=1;jettySize=auto;html=1;strokeColor=default;align=center;verticalAlign=middle;fontFamily=Helvetica;fontSize=11;fontColor=default;labelBackgroundColor=default;endArrow=none;endFill=0;" edge="1" parent="1" source="s-gAyY3BLTUoH7W5xHSd-3" target="tF1DNe6oD6CyZ-WPLli9-13">
          <mxGeometry relative="1" as="geometry" />
        </mxCell>
        <mxCell id="tF1DNe6oD6CyZ-WPLli9-17" value="" style="edgeStyle=orthogonalEdgeStyle;shape=connector;rounded=0;orthogonalLoop=1;jettySize=auto;html=1;strokeColor=default;align=center;verticalAlign=middle;fontFamily=Helvetica;fontSize=11;fontColor=default;labelBackgroundColor=default;endArrow=none;endFill=0;" edge="1" parent="1" source="s-gAyY3BLTUoH7W5xHSd-3" target="tF1DNe6oD6CyZ-WPLli9-16">
          <mxGeometry relative="1" as="geometry" />
        </mxCell>
        <mxCell id="s-gAyY3BLTUoH7W5xHSd-3" value="R&lt;sub&gt;2&lt;/sub&gt;" style="pointerEvents=1;verticalLabelPosition=top;shadow=0;dashed=0;align=center;html=1;verticalAlign=bottom;shape=mxgraph.electrical.resistors.resistor_2;labelPosition=center;" parent="1" vertex="1">
          <mxGeometry x="160" y="140" width="100" height="20" as="geometry" />
        </mxCell>
        <mxCell id="s-gAyY3BLTUoH7W5xHSd-7" value="$$2.2\ k\Omega$$" style="text;html=1;align=center;verticalAlign=middle;whiteSpace=wrap;rounded=0;" parent="1" vertex="1">
          <mxGeometry x="180" y="160" width="60" height="20" as="geometry" />
        </mxCell>
        <mxCell id="s-gAyY3BLTUoH7W5xHSd-8" value="" style="verticalLabelPosition=bottom;shadow=0;dashed=0;align=center;html=1;verticalAlign=top;strokeWidth=1;shape=ellipse;perimeter=ellipsePerimeter;fontFamily=Helvetica;fontSize=11;fontColor=default;labelBackgroundColor=default;" parent="1" vertex="1">
          <mxGeometry x="95" y="72.5" width="15" height="15" as="geometry" />
        </mxCell>
        <mxCell id="s-gAyY3BLTUoH7W5xHSd-9" value="" style="verticalLabelPosition=bottom;shadow=0;dashed=0;align=center;html=1;verticalAlign=top;strokeWidth=1;shape=ellipse;perimeter=ellipsePerimeter;fontFamily=Helvetica;fontSize=11;fontColor=default;labelBackgroundColor=default;" parent="1" vertex="1">
          <mxGeometry x="310" y="72.5" width="15" height="15" as="geometry" />
        </mxCell>
        <mxCell id="tF1DNe6oD6CyZ-WPLli9-15" value="" style="edgeStyle=orthogonalEdgeStyle;shape=connector;rounded=0;orthogonalLoop=1;jettySize=auto;html=1;strokeColor=default;align=center;verticalAlign=middle;fontFamily=Helvetica;fontSize=11;fontColor=default;labelBackgroundColor=default;endArrow=none;endFill=0;" edge="1" parent="1" source="s-gAyY3BLTUoH7W5xHSd-1" target="tF1DNe6oD6CyZ-WPLli9-13">
          <mxGeometry relative="1" as="geometry">
            <mxPoint x="260" y="80" as="sourcePoint" />
            <mxPoint x="310" y="80" as="targetPoint" />
          </mxGeometry>
        </mxCell>
        <mxCell id="tF1DNe6oD6CyZ-WPLli9-13" value="" style="shape=waypoint;sketch=0;size=6;pointerEvents=1;points=[];fillColor=default;resizable=0;rotatable=0;perimeter=centerPerimeter;snapToPoint=1;verticalAlign=bottom;shadow=0;dashed=0;" vertex="1" parent="1">
          <mxGeometry x="270" y="70" width="20" height="20" as="geometry" />
        </mxCell>
        <mxCell id="tF1DNe6oD6CyZ-WPLli9-18" value="" style="edgeStyle=orthogonalEdgeStyle;shape=connector;rounded=0;orthogonalLoop=1;jettySize=auto;html=1;strokeColor=default;align=center;verticalAlign=middle;fontFamily=Helvetica;fontSize=11;fontColor=default;labelBackgroundColor=default;endArrow=none;endFill=0;" edge="1" parent="1" source="s-gAyY3BLTUoH7W5xHSd-1" target="tF1DNe6oD6CyZ-WPLli9-16">
          <mxGeometry relative="1" as="geometry">
            <mxPoint x="160" y="80" as="sourcePoint" />
            <mxPoint x="115" y="80" as="targetPoint" />
          </mxGeometry>
        </mxCell>
        <mxCell id="tF1DNe6oD6CyZ-WPLli9-16" value="" style="shape=waypoint;sketch=0;size=6;pointerEvents=1;points=[];fillColor=default;resizable=0;rotatable=0;perimeter=centerPerimeter;snapToPoint=1;verticalAlign=bottom;shadow=0;dashed=0;" vertex="1" parent="1">
          <mxGeometry x="130" y="70" width="20" height="20" as="geometry" />
        </mxCell>
      </root>
    </mxGraphModel>
  </diagram>
</mxfile>
